<!DOCTYPE svg PUBLIC "-//W3C//DTD SVG 20010904//EN" "http://www.w3.org/TR/2001/REC-SVG-20010904/DTD/svg10.dtd">
<svg version="1.0" xmlns="http://www.w3.org/2000/svg" width="135px" viewBox="0 0 12000 5590" preserveAspectRatio="xMidYMid meet">
<g id="layer101" fill="#b11322" stroke="none">
 <path d="M0 2795 l0 -2795 6000 0 6000 0 0 2795 0 2795 -6000 0 -6000 0 0 -2795z"/>
 </g>
<g id="layer102" fill="#ffffff" stroke="none">
 <path d="M946 4963 c2 -346 7 -1248 10 -2006 5 -1091 9 -1376 19 -1365 11 12 197 302 820 1278 515 808 711 1086 777 1104 19 5 36 -8 98 -72 101 -105 172 -207 755 -1082 559 -840 665 -994 679 -980 30 30 28 956 -8 2880 -7 371 -12 676 -11 678 4 5 1728 -28 1940 -38 390 -18 486 -33 710 -110 265 -90 546 -244 785 -428 112 -87 335 -306 420 -412 197 -248 337 -490 443 -770 103 -269 138 -451 192 -1005 35 -359 66 -476 176 -684 90 -169 184 -297 323 -439 182 -187 322 -288 551 -398 l150 -72 1015 -11 c558 -6 1059 -11 1113 -11 l97 0 0 2285 0 2285 -5529 0 -5530 0 5 -627z m10069 -2135 c-4 -230 -3 -401 4 -468 8 -80 7 -108 -2 -117 -41 -41 -439 -57 -1187 -48 -670 7 -796 14 -866 44 -107 48 -116 86 -144 606 -6 105 -13 225 -16 268 l-7 77 1113 0 1112 0 -7 -362z"/>
 <path d="M5112 2703 l3 -1668 75 -8 c136 -14 715 -13 835 1 317 39 562 125 760 267 171 123 281 237 471 487 96 127 124 155 124 128 0 -6 30 -90 66 -188 83 -223 227 -512 345 -693 52 -79 88 -144 83 -148 -314 -286 -390 -349 -537 -447 -293 -195 -663 -341 -969 -383 -170 -23 -373 -34 -803 -40 -247 -4 878 -7 2500 -7 1623 0 2874 2 2780 3 -418 6 -1058 25 -1139 34 -144 16 -231 37 -366 90 -383 149 -696 354 -990 648 -343 343 -534 641 -663 1033 -70 210 -108 427 -147 833 -38 394 -61 507 -143 692 -165 375 -452 676 -812 853 -305 149 -501 180 -1141 180 l-334 0 2 -1667z"/>
 <path d="M2470 2157 c-198 -299 -1285 -1995 -1374 -2144 -6 -10 299 -13 1511 -13 835 0 1513 4 1507 8 -5 4 -68 99 -139 212 -895 1428 -1343 2111 -1383 2110 -4 0 -59 -78 -122 -173z"/>
 </g>

</svg>
