<!DOCTYPE svg PUBLIC "-//W3C//DTD SVG 20010904//EN" "http://www.w3.org/TR/2001/REC-SVG-20010904/DTD/svg10.dtd">
<svg version="1.0" xmlns="http://www.w3.org/2000/svg" width="1200px" height="675px" viewBox="0 0 12000 6750" preserveAspectRatio="xMidYMid meet">
<g id="layer101" fill="#c1272d" stroke="none">
 <path d="M0 3375 l0 -3375 6000 0 6000 0 0 3375 0 3375 -6000 0 -6000 0 0 -3375z"/>
 </g>
<g id="layer102" fill="#ffffff" stroke="none">
 <path d="M0 3375 l0 -3375 6000 0 6000 0 0 3375 0 3375 -6000 0 -6000 0 0 -3375z m4962 4 l3 -510 195 305 c156 244 199 306 216 306 17 0 59 -57 199 -270 97 -149 182 -273 188 -277 7 -4 8 136 3 451 l-8 458 289 -5 c231 -3 300 -8 348 -21 235 -67 417 -254 479 -493 9 -32 19 -109 24 -170 8 -97 13 -121 42 -180 42 -86 129 -174 207 -211 l58 -27 283 -3 282 -3 0 -130 0 -131 -302 4 c-281 4 -307 6 -362 26 -103 38 -188 93 -266 171 -132 133 -185 254 -201 450 -5 63 -14 131 -20 150 -47 144 -150 248 -288 291 -48 15 -92 20 -187 20 l-124 0 0 -424 0 -424 83 -4 c229 -9 341 35 449 178 l41 55 17 -48 c20 -58 65 -147 93 -187 l21 -30 -64 -58 c-82 -76 -199 -134 -305 -153 -56 -10 -158 -14 -335 -14 l-255 0 -189 299 c-104 165 -192 297 -197 294 -4 -2 -92 -137 -195 -299 l-188 -295 -138 0 -138 0 0 710 0 710 120 0 120 0 2 -511z m2557 -212 c-1 -62 1 -118 4 -124 9 -14 -145 -20 -372 -15 -197 5 -178 -11 -188 150 l-6 102 282 0 282 0 -2 -113z"/>
 </g>

</svg>